<svg width="595" height="155" viewBox="0 0 595 155" fill="none" xmlns="http://www.w3.org/2000/svg">
<mask id="path-1-outside-1_10130_175" maskUnits="userSpaceOnUse" x="5" y="27" width="584" height="125" fill="black">
<rect fill="white" x="5" y="27" width="584" height="125"/>
<path d="M39.0909 125.455C32.3636 125.455 26.5606 123.97 21.6818 121C16.8333 118 13.0909 113.818 10.4545 108.455C7.84849 103.061 6.54545 96.7879 6.54545 89.6364C6.54545 82.4848 7.84849 76.1818 10.4545 70.7273C13.0909 65.2424 16.7576 60.9697 21.4545 57.9091C26.1818 54.8182 31.697 53.2727 38 53.2727C41.6364 53.2727 45.2273 53.8788 48.7727 55.0909C52.3182 56.303 55.5455 58.2727 58.4545 61C61.3636 63.697 63.6818 67.2727 65.4091 71.7273C67.1364 76.1818 68 81.6667 68 88.1818V92.7273H14.1818V83.4545H57.0909C57.0909 79.5151 56.303 76 54.7273 72.9091C53.1818 69.8182 50.9697 67.3788 48.0909 65.5909C45.2424 63.803 41.8788 62.9091 38 62.9091C33.7273 62.9091 30.0303 63.9697 26.9091 66.0909C23.8182 68.1818 21.4394 70.9091 19.7727 74.2727C18.1061 77.6364 17.2727 81.2424 17.2727 85.0909V91.2727C17.2727 96.5455 18.1818 101.015 20 104.682C21.8485 108.318 24.4091 111.091 27.6818 113C30.9545 114.879 34.7576 115.818 39.0909 115.818C41.9091 115.818 44.4545 115.424 46.7273 114.636C49.0303 113.818 51.0152 112.606 52.6818 111C54.3485 109.364 55.6364 107.333 56.5455 104.909L66.9091 107.818C65.8182 111.333 63.9848 114.424 61.4091 117.091C58.8333 119.727 55.6515 121.788 51.8636 123.273C48.0758 124.727 43.8182 125.455 39.0909 125.455ZM112.682 125.455C106.136 125.455 100.5 123.909 95.7727 120.818C91.0455 117.727 87.4091 113.47 84.8636 108.045C82.3182 102.621 81.0455 96.4242 81.0455 89.4545C81.0455 82.3636 82.3485 76.1061 84.9545 70.6818C87.5909 65.2273 91.2576 60.9697 95.9545 57.9091C100.682 54.8182 106.197 53.2727 112.5 53.2727C117.409 53.2727 121.833 54.1818 125.773 56C129.712 57.8182 132.939 60.3636 135.455 63.6364C137.97 66.9091 139.53 70.7273 140.136 75.0909H129.409C128.591 71.9091 126.773 69.0909 123.955 66.6364C121.167 64.1515 117.409 62.9091 112.682 62.9091C108.5 62.9091 104.833 64 101.682 66.1818C98.5606 68.3333 96.1212 71.3788 94.3636 75.3182C92.6364 79.2273 91.7727 83.8182 91.7727 89.0909C91.7727 94.4848 92.6212 99.1818 94.3182 103.182C96.0455 107.182 98.4697 110.288 101.591 112.5C104.742 114.712 108.439 115.818 112.682 115.818C115.47 115.818 118 115.333 120.273 114.364C122.545 113.394 124.47 112 126.045 110.182C127.621 108.364 128.742 106.182 129.409 103.636H140.136C139.53 107.758 138.03 111.47 135.636 114.773C133.273 118.045 130.136 120.652 126.227 122.591C122.348 124.5 117.833 125.455 112.682 125.455ZM186.182 54.1818V63.2727H150V54.1818H186.182ZM160.545 37.4545H171.273V104C171.273 107.03 171.712 109.303 172.591 110.818C173.5 112.303 174.652 113.303 176.045 113.818C177.47 114.303 178.97 114.545 180.545 114.545C181.727 114.545 182.697 114.485 183.455 114.364C184.212 114.212 184.818 114.091 185.273 114L187.455 123.636C186.727 123.909 185.712 124.182 184.409 124.455C183.106 124.758 181.455 124.909 179.455 124.909C176.424 124.909 173.455 124.258 170.545 122.955C167.667 121.652 165.273 119.667 163.364 117C161.485 114.333 160.545 110.97 160.545 106.909V37.4545ZM202.318 124V54.1818H212.682V64.7273H213.409C214.682 61.2727 216.985 58.4697 220.318 56.3182C223.652 54.1667 227.409 53.0909 231.591 53.0909C232.379 53.0909 233.364 53.1061 234.545 53.1364C235.727 53.1667 236.621 53.2121 237.227 53.2727V64.1818C236.864 64.0909 236.03 63.9545 234.727 63.7727C233.455 63.5606 232.106 63.4545 230.682 63.4545C227.288 63.4545 224.258 64.1667 221.591 65.5909C218.955 66.9848 216.864 68.9242 215.318 71.4091C213.803 73.8636 213.045 76.6667 213.045 79.8182V124H202.318ZM276.182 125.455C269.879 125.455 264.348 123.955 259.591 120.955C254.864 117.955 251.167 113.758 248.5 108.364C245.864 102.97 244.545 96.6667 244.545 89.4545C244.545 82.1818 245.864 75.8333 248.5 70.4091C251.167 64.9848 254.864 60.7727 259.591 57.7727C264.348 54.7727 269.879 53.2727 276.182 53.2727C282.485 53.2727 288 54.7727 292.727 57.7727C297.485 60.7727 301.182 64.9848 303.818 70.4091C306.485 75.8333 307.818 82.1818 307.818 89.4545C307.818 96.6667 306.485 102.97 303.818 108.364C301.182 113.758 297.485 117.955 292.727 120.955C288 123.955 282.485 125.455 276.182 125.455ZM276.182 115.818C280.97 115.818 284.909 114.591 288 112.136C291.091 109.682 293.379 106.455 294.864 102.455C296.348 98.4545 297.091 94.1212 297.091 89.4545C297.091 84.7879 296.348 80.4394 294.864 76.4091C293.379 72.3788 291.091 69.1212 288 66.6364C284.909 64.1515 280.97 62.9091 276.182 62.9091C271.394 62.9091 267.455 64.1515 264.364 66.6364C261.273 69.1212 258.985 72.3788 257.5 76.4091C256.015 80.4394 255.273 84.7879 255.273 89.4545C255.273 94.1212 256.015 98.4545 257.5 102.455C258.985 106.455 261.273 109.682 264.364 112.136C267.455 114.591 271.394 115.818 276.182 115.818ZM324.193 150.182V54.1818H334.557V65.2727H335.83C336.617 64.0606 337.708 62.5151 339.102 60.6364C340.527 58.7273 342.557 57.0303 345.193 55.5455C347.86 54.0303 351.466 53.2727 356.011 53.2727C361.89 53.2727 367.072 54.7424 371.557 57.6818C376.042 60.6212 379.542 64.7879 382.057 70.1818C384.572 75.5758 385.83 81.9394 385.83 89.2727C385.83 96.6667 384.572 103.076 382.057 108.5C379.542 113.894 376.057 118.076 371.602 121.045C367.148 123.985 362.011 125.455 356.193 125.455C351.708 125.455 348.117 124.712 345.42 123.227C342.723 121.712 340.648 120 339.193 118.091C337.739 116.152 336.617 114.545 335.83 113.273H334.92V150.182H324.193ZM334.739 89.0909C334.739 94.3636 335.511 99.0152 337.057 103.045C338.602 107.045 340.86 110.182 343.83 112.455C346.799 114.697 350.436 115.818 354.739 115.818C359.223 115.818 362.966 114.636 365.966 112.273C368.996 109.879 371.269 106.667 372.784 102.636C374.33 98.5758 375.102 94.0606 375.102 89.0909C375.102 84.1818 374.345 79.7576 372.83 75.8182C371.345 71.8485 369.087 68.7121 366.057 66.4091C363.057 64.0758 359.284 62.9091 354.739 62.9091C350.375 62.9091 346.708 64.0151 343.739 66.2273C340.769 68.4091 338.527 71.4697 337.011 75.4091C335.496 79.3182 334.739 83.8788 334.739 89.0909ZM406.602 150.182C404.784 150.182 403.163 150.03 401.739 149.727C400.314 149.455 399.33 149.182 398.784 148.909L401.511 139.455C404.117 140.121 406.42 140.364 408.42 140.182C410.42 140 412.193 139.106 413.739 137.5C415.314 135.924 416.754 133.364 418.057 129.818L420.057 124.364L394.239 54.1818H405.875L425.148 109.818H425.875L445.148 54.1818H456.784L427.148 134.182C425.814 137.788 424.163 140.773 422.193 143.136C420.223 145.53 417.936 147.303 415.33 148.455C412.754 149.606 409.845 150.182 406.602 150.182ZM474.386 124.727C472.144 124.727 470.22 123.924 468.614 122.318C467.008 120.712 466.205 118.788 466.205 116.545C466.205 114.303 467.008 112.379 468.614 110.773C470.22 109.167 472.144 108.364 474.386 108.364C476.629 108.364 478.553 109.167 480.159 110.773C481.765 112.379 482.568 114.303 482.568 116.545C482.568 118.03 482.189 119.394 481.432 120.636C480.705 121.879 479.72 122.879 478.477 123.636C477.265 124.364 475.902 124.727 474.386 124.727ZM522.364 125.636C517.939 125.636 513.924 124.803 510.318 123.136C506.712 121.439 503.848 119 501.727 115.818C499.606 112.606 498.545 108.727 498.545 104.182C498.545 100.182 499.333 96.9394 500.909 94.4545C502.485 91.9394 504.591 89.9697 507.227 88.5455C509.864 87.1212 512.773 86.0606 515.955 85.3636C519.167 84.6364 522.394 84.0606 525.636 83.6364C529.879 83.0909 533.318 82.6818 535.955 82.4091C538.621 82.1061 540.561 81.6061 541.773 80.9091C543.015 80.2121 543.636 79 543.636 77.2727V76.9091C543.636 72.4242 542.409 68.9394 539.955 66.4545C537.53 63.9697 533.848 62.7273 528.909 62.7273C523.788 62.7273 519.773 63.8485 516.864 66.0909C513.955 68.3333 511.909 70.7273 510.727 73.2727L500.545 69.6364C502.364 65.3939 504.788 62.0909 507.818 59.7273C510.879 57.3333 514.212 55.6667 517.818 54.7273C521.455 53.7576 525.03 53.2727 528.545 53.2727C530.788 53.2727 533.364 53.5455 536.273 54.0909C539.212 54.6061 542.045 55.6818 544.773 57.3182C547.53 58.9545 549.818 61.4242 551.636 64.7273C553.455 68.0303 554.364 72.4545 554.364 78V124H543.636V114.545H543.091C542.364 116.061 541.152 117.682 539.455 119.409C537.758 121.136 535.5 122.606 532.682 123.818C529.864 125.03 526.424 125.636 522.364 125.636ZM524 116C528.242 116 531.818 115.167 534.727 113.5C537.667 111.833 539.879 109.682 541.364 107.045C542.879 104.409 543.636 101.636 543.636 98.7273V88.9091C543.182 89.4545 542.182 89.9545 540.636 90.4091C539.121 90.8333 537.364 91.2121 535.364 91.5455C533.394 91.8485 531.47 92.1212 529.591 92.3636C527.742 92.5758 526.242 92.7576 525.091 92.9091C522.303 93.2727 519.697 93.8636 517.273 94.6818C514.879 95.4697 512.939 96.6667 511.455 98.2727C510 99.8485 509.273 102 509.273 104.727C509.273 108.455 510.652 111.273 513.409 113.182C516.197 115.061 519.727 116 524 116ZM573.943 124V54.1818H584.67V124H573.943ZM579.398 42.5455C577.307 42.5455 575.504 41.8333 573.989 40.4091C572.504 38.9848 571.761 37.2727 571.761 35.2727C571.761 33.2727 572.504 31.5606 573.989 30.1364C575.504 28.7121 577.307 28 579.398 28C581.489 28 583.277 28.7121 584.761 30.1364C586.277 31.5606 587.034 33.2727 587.034 35.2727C587.034 37.2727 586.277 38.9848 584.761 40.4091C583.277 41.8333 581.489 42.5455 579.398 42.5455Z"/>
</mask>
<path d="M39.0909 125.455C32.3636 125.455 26.5606 123.97 21.6818 121C16.8333 118 13.0909 113.818 10.4545 108.455C7.84849 103.061 6.54545 96.7879 6.54545 89.6364C6.54545 82.4848 7.84849 76.1818 10.4545 70.7273C13.0909 65.2424 16.7576 60.9697 21.4545 57.9091C26.1818 54.8182 31.697 53.2727 38 53.2727C41.6364 53.2727 45.2273 53.8788 48.7727 55.0909C52.3182 56.303 55.5455 58.2727 58.4545 61C61.3636 63.697 63.6818 67.2727 65.4091 71.7273C67.1364 76.1818 68 81.6667 68 88.1818V92.7273H14.1818V83.4545H57.0909C57.0909 79.5151 56.303 76 54.7273 72.9091C53.1818 69.8182 50.9697 67.3788 48.0909 65.5909C45.2424 63.803 41.8788 62.9091 38 62.9091C33.7273 62.9091 30.0303 63.9697 26.9091 66.0909C23.8182 68.1818 21.4394 70.9091 19.7727 74.2727C18.1061 77.6364 17.2727 81.2424 17.2727 85.0909V91.2727C17.2727 96.5455 18.1818 101.015 20 104.682C21.8485 108.318 24.4091 111.091 27.6818 113C30.9545 114.879 34.7576 115.818 39.0909 115.818C41.9091 115.818 44.4545 115.424 46.7273 114.636C49.0303 113.818 51.0152 112.606 52.6818 111C54.3485 109.364 55.6364 107.333 56.5455 104.909L66.9091 107.818C65.8182 111.333 63.9848 114.424 61.4091 117.091C58.8333 119.727 55.6515 121.788 51.8636 123.273C48.0758 124.727 43.8182 125.455 39.0909 125.455ZM112.682 125.455C106.136 125.455 100.5 123.909 95.7727 120.818C91.0455 117.727 87.4091 113.47 84.8636 108.045C82.3182 102.621 81.0455 96.4242 81.0455 89.4545C81.0455 82.3636 82.3485 76.1061 84.9545 70.6818C87.5909 65.2273 91.2576 60.9697 95.9545 57.9091C100.682 54.8182 106.197 53.2727 112.5 53.2727C117.409 53.2727 121.833 54.1818 125.773 56C129.712 57.8182 132.939 60.3636 135.455 63.6364C137.97 66.9091 139.53 70.7273 140.136 75.0909H129.409C128.591 71.9091 126.773 69.0909 123.955 66.6364C121.167 64.1515 117.409 62.9091 112.682 62.9091C108.5 62.9091 104.833 64 101.682 66.1818C98.5606 68.3333 96.1212 71.3788 94.3636 75.3182C92.6364 79.2273 91.7727 83.8182 91.7727 89.0909C91.7727 94.4848 92.6212 99.1818 94.3182 103.182C96.0455 107.182 98.4697 110.288 101.591 112.5C104.742 114.712 108.439 115.818 112.682 115.818C115.47 115.818 118 115.333 120.273 114.364C122.545 113.394 124.47 112 126.045 110.182C127.621 108.364 128.742 106.182 129.409 103.636H140.136C139.53 107.758 138.03 111.47 135.636 114.773C133.273 118.045 130.136 120.652 126.227 122.591C122.348 124.5 117.833 125.455 112.682 125.455ZM186.182 54.1818V63.2727H150V54.1818H186.182ZM160.545 37.4545H171.273V104C171.273 107.03 171.712 109.303 172.591 110.818C173.5 112.303 174.652 113.303 176.045 113.818C177.47 114.303 178.97 114.545 180.545 114.545C181.727 114.545 182.697 114.485 183.455 114.364C184.212 114.212 184.818 114.091 185.273 114L187.455 123.636C186.727 123.909 185.712 124.182 184.409 124.455C183.106 124.758 181.455 124.909 179.455 124.909C176.424 124.909 173.455 124.258 170.545 122.955C167.667 121.652 165.273 119.667 163.364 117C161.485 114.333 160.545 110.97 160.545 106.909V37.4545ZM202.318 124V54.1818H212.682V64.7273H213.409C214.682 61.2727 216.985 58.4697 220.318 56.3182C223.652 54.1667 227.409 53.0909 231.591 53.0909C232.379 53.0909 233.364 53.1061 234.545 53.1364C235.727 53.1667 236.621 53.2121 237.227 53.2727V64.1818C236.864 64.0909 236.03 63.9545 234.727 63.7727C233.455 63.5606 232.106 63.4545 230.682 63.4545C227.288 63.4545 224.258 64.1667 221.591 65.5909C218.955 66.9848 216.864 68.9242 215.318 71.4091C213.803 73.8636 213.045 76.6667 213.045 79.8182V124H202.318ZM276.182 125.455C269.879 125.455 264.348 123.955 259.591 120.955C254.864 117.955 251.167 113.758 248.5 108.364C245.864 102.97 244.545 96.6667 244.545 89.4545C244.545 82.1818 245.864 75.8333 248.5 70.4091C251.167 64.9848 254.864 60.7727 259.591 57.7727C264.348 54.7727 269.879 53.2727 276.182 53.2727C282.485 53.2727 288 54.7727 292.727 57.7727C297.485 60.7727 301.182 64.9848 303.818 70.4091C306.485 75.8333 307.818 82.1818 307.818 89.4545C307.818 96.6667 306.485 102.97 303.818 108.364C301.182 113.758 297.485 117.955 292.727 120.955C288 123.955 282.485 125.455 276.182 125.455ZM276.182 115.818C280.97 115.818 284.909 114.591 288 112.136C291.091 109.682 293.379 106.455 294.864 102.455C296.348 98.4545 297.091 94.1212 297.091 89.4545C297.091 84.7879 296.348 80.4394 294.864 76.4091C293.379 72.3788 291.091 69.1212 288 66.6364C284.909 64.1515 280.97 62.9091 276.182 62.9091C271.394 62.9091 267.455 64.1515 264.364 66.6364C261.273 69.1212 258.985 72.3788 257.5 76.4091C256.015 80.4394 255.273 84.7879 255.273 89.4545C255.273 94.1212 256.015 98.4545 257.5 102.455C258.985 106.455 261.273 109.682 264.364 112.136C267.455 114.591 271.394 115.818 276.182 115.818ZM324.193 150.182V54.1818H334.557V65.2727H335.83C336.617 64.0606 337.708 62.5151 339.102 60.6364C340.527 58.7273 342.557 57.0303 345.193 55.5455C347.86 54.0303 351.466 53.2727 356.011 53.2727C361.89 53.2727 367.072 54.7424 371.557 57.6818C376.042 60.6212 379.542 64.7879 382.057 70.1818C384.572 75.5758 385.83 81.9394 385.83 89.2727C385.83 96.6667 384.572 103.076 382.057 108.5C379.542 113.894 376.057 118.076 371.602 121.045C367.148 123.985 362.011 125.455 356.193 125.455C351.708 125.455 348.117 124.712 345.42 123.227C342.723 121.712 340.648 120 339.193 118.091C337.739 116.152 336.617 114.545 335.83 113.273H334.92V150.182H324.193ZM334.739 89.0909C334.739 94.3636 335.511 99.0152 337.057 103.045C338.602 107.045 340.86 110.182 343.83 112.455C346.799 114.697 350.436 115.818 354.739 115.818C359.223 115.818 362.966 114.636 365.966 112.273C368.996 109.879 371.269 106.667 372.784 102.636C374.33 98.5758 375.102 94.0606 375.102 89.0909C375.102 84.1818 374.345 79.7576 372.83 75.8182C371.345 71.8485 369.087 68.7121 366.057 66.4091C363.057 64.0758 359.284 62.9091 354.739 62.9091C350.375 62.9091 346.708 64.0151 343.739 66.2273C340.769 68.4091 338.527 71.4697 337.011 75.4091C335.496 79.3182 334.739 83.8788 334.739 89.0909ZM406.602 150.182C404.784 150.182 403.163 150.03 401.739 149.727C400.314 149.455 399.33 149.182 398.784 148.909L401.511 139.455C404.117 140.121 406.42 140.364 408.42 140.182C410.42 140 412.193 139.106 413.739 137.5C415.314 135.924 416.754 133.364 418.057 129.818L420.057 124.364L394.239 54.1818H405.875L425.148 109.818H425.875L445.148 54.1818H456.784L427.148 134.182C425.814 137.788 424.163 140.773 422.193 143.136C420.223 145.53 417.936 147.303 415.33 148.455C412.754 149.606 409.845 150.182 406.602 150.182ZM474.386 124.727C472.144 124.727 470.22 123.924 468.614 122.318C467.008 120.712 466.205 118.788 466.205 116.545C466.205 114.303 467.008 112.379 468.614 110.773C470.22 109.167 472.144 108.364 474.386 108.364C476.629 108.364 478.553 109.167 480.159 110.773C481.765 112.379 482.568 114.303 482.568 116.545C482.568 118.03 482.189 119.394 481.432 120.636C480.705 121.879 479.72 122.879 478.477 123.636C477.265 124.364 475.902 124.727 474.386 124.727ZM522.364 125.636C517.939 125.636 513.924 124.803 510.318 123.136C506.712 121.439 503.848 119 501.727 115.818C499.606 112.606 498.545 108.727 498.545 104.182C498.545 100.182 499.333 96.9394 500.909 94.4545C502.485 91.9394 504.591 89.9697 507.227 88.5455C509.864 87.1212 512.773 86.0606 515.955 85.3636C519.167 84.6364 522.394 84.0606 525.636 83.6364C529.879 83.0909 533.318 82.6818 535.955 82.4091C538.621 82.1061 540.561 81.6061 541.773 80.9091C543.015 80.2121 543.636 79 543.636 77.2727V76.9091C543.636 72.4242 542.409 68.9394 539.955 66.4545C537.53 63.9697 533.848 62.7273 528.909 62.7273C523.788 62.7273 519.773 63.8485 516.864 66.0909C513.955 68.3333 511.909 70.7273 510.727 73.2727L500.545 69.6364C502.364 65.3939 504.788 62.0909 507.818 59.7273C510.879 57.3333 514.212 55.6667 517.818 54.7273C521.455 53.7576 525.03 53.2727 528.545 53.2727C530.788 53.2727 533.364 53.5455 536.273 54.0909C539.212 54.6061 542.045 55.6818 544.773 57.3182C547.53 58.9545 549.818 61.4242 551.636 64.7273C553.455 68.0303 554.364 72.4545 554.364 78V124H543.636V114.545H543.091C542.364 116.061 541.152 117.682 539.455 119.409C537.758 121.136 535.5 122.606 532.682 123.818C529.864 125.03 526.424 125.636 522.364 125.636ZM524 116C528.242 116 531.818 115.167 534.727 113.5C537.667 111.833 539.879 109.682 541.364 107.045C542.879 104.409 543.636 101.636 543.636 98.7273V88.9091C543.182 89.4545 542.182 89.9545 540.636 90.4091C539.121 90.8333 537.364 91.2121 535.364 91.5455C533.394 91.8485 531.47 92.1212 529.591 92.3636C527.742 92.5758 526.242 92.7576 525.091 92.9091C522.303 93.2727 519.697 93.8636 517.273 94.6818C514.879 95.4697 512.939 96.6667 511.455 98.2727C510 99.8485 509.273 102 509.273 104.727C509.273 108.455 510.652 111.273 513.409 113.182C516.197 115.061 519.727 116 524 116ZM573.943 124V54.1818H584.67V124H573.943ZM579.398 42.5455C577.307 42.5455 575.504 41.8333 573.989 40.4091C572.504 38.9848 571.761 37.2727 571.761 35.2727C571.761 33.2727 572.504 31.5606 573.989 30.1364C575.504 28.7121 577.307 28 579.398 28C581.489 28 583.277 28.7121 584.761 30.1364C586.277 31.5606 587.034 33.2727 587.034 35.2727C587.034 37.2727 586.277 38.9848 584.761 40.4091C583.277 41.8333 581.489 42.5455 579.398 42.5455Z" fill="#1565C0"/>
<path d="M21.6818 121L21.1556 121.85L21.1619 121.854L21.6818 121ZM10.4545 108.455L9.55411 108.89L9.5571 108.896L10.4545 108.455ZM10.4545 70.7273L9.55325 70.2941L9.55224 70.2962L10.4545 70.7273ZM21.4545 57.9091L22.0005 58.7469L22.0018 58.7461L21.4545 57.9091ZM48.7727 55.0909L49.0962 54.1447L49.0962 54.1447L48.7727 55.0909ZM58.4545 61L57.7706 61.7295L57.7747 61.7333L58.4545 61ZM65.4091 71.7273L66.3415 71.3657L66.3415 71.3657L65.4091 71.7273ZM68 92.7273V93.7273H69V92.7273H68ZM14.1818 92.7273H13.1818V93.7273H14.1818V92.7273ZM14.1818 83.4545V82.4545H13.1818V83.4545H14.1818ZM57.0909 83.4545V84.4545H58.0909V83.4545H57.0909ZM54.7273 72.9091L53.8328 73.3563L53.8364 73.3633L54.7273 72.9091ZM48.0909 65.5909L47.5593 66.4379L47.5633 66.4404L48.0909 65.5909ZM26.9091 66.0909L27.4694 66.9192L27.4712 66.918L26.9091 66.0909ZM19.7727 74.2727L18.8767 73.8287L18.8767 73.8287L19.7727 74.2727ZM20 104.682L19.1041 105.126L19.1086 105.135L20 104.682ZM27.6818 113L27.1779 113.864L27.184 113.867L27.6818 113ZM46.7273 114.636L47.0548 115.581L47.062 115.579L46.7273 114.636ZM52.6818 111L53.3757 111.72L53.3824 111.714L52.6818 111ZM56.5455 104.909L56.8157 103.946L55.9316 103.698L55.6091 104.558L56.5455 104.909ZM66.9091 107.818L67.8642 108.115L68.1688 107.133L67.1794 106.855L66.9091 107.818ZM61.4091 117.091L62.1244 117.79L62.1284 117.786L61.4091 117.091ZM51.8636 123.273L52.2221 124.206L52.2286 124.204L51.8636 123.273ZM39.0909 125.455V124.455C32.514 124.455 26.8979 123.004 22.2018 120.146L21.6818 121L21.1619 121.854C26.2233 124.935 32.2132 126.455 39.0909 126.455V125.455ZM21.6818 121L22.208 120.15C17.5271 117.253 13.9097 113.217 11.352 108.013L10.4545 108.455L9.5571 108.896C12.2721 114.419 16.1395 118.747 21.1556 121.85L21.6818 121ZM10.4545 108.455L11.355 108.02C8.82594 102.785 7.54545 96.6661 7.54545 89.6364H6.54545H5.54545C5.54545 96.9097 6.87103 103.336 9.55413 108.89L10.4545 108.455ZM6.54545 89.6364H7.54545C7.54545 82.607 8.82583 76.4559 11.3568 71.1584L10.4545 70.7273L9.55224 70.2962C6.87114 75.9078 5.54545 82.3627 5.54545 89.6364H6.54545ZM10.4545 70.7273L11.3558 71.1605C13.92 65.8259 17.4698 61.6992 22.0005 58.7469L21.4545 57.9091L20.9086 57.0713C16.0454 60.2402 12.2618 64.659 9.55326 70.2941L10.4545 70.7273ZM21.4545 57.9091L22.0018 58.7461C26.5479 55.7736 31.868 54.2727 38 54.2727V53.2727V52.2727C31.5259 52.2727 25.8158 53.8627 20.9073 57.0721L21.4545 57.9091ZM38 53.2727V54.2727C41.523 54.2727 45.0047 54.8595 48.4492 56.0371L48.7727 55.0909L49.0962 54.1447C45.4498 52.8981 41.7498 52.2727 38 52.2727V53.2727ZM48.7727 55.0909L48.4492 56.0371C51.852 57.2005 54.9582 59.0929 57.7706 61.7295L58.4545 61L59.1385 60.2705C56.1327 57.4526 52.7843 55.4056 49.0962 54.1447L48.7727 55.0909ZM58.4545 61L57.7747 61.7333C60.552 64.3082 62.7933 67.7472 64.4767 72.0888L65.4091 71.7273L66.3415 71.3657C64.5704 66.7982 62.1752 63.0858 59.1344 60.2667L58.4545 61ZM65.4091 71.7273L64.4767 72.0888C66.1463 76.3945 67 81.7483 67 88.1818H68H69C69 81.585 68.1265 75.9692 66.3415 71.3657L65.4091 71.7273ZM68 88.1818H67V92.7273H68H69V88.1818H68ZM68 92.7273V91.7273H14.1818V92.7273V93.7273H68V92.7273ZM14.1818 92.7273H15.1818V83.4545H14.1818H13.1818V92.7273H14.1818ZM14.1818 83.4545V84.4545H57.0909V83.4545V82.4545H14.1818V83.4545ZM57.0909 83.4545H58.0909C58.0909 79.3788 57.2748 75.7045 55.6182 72.4549L54.7273 72.9091L53.8364 73.3633C55.3312 76.2955 56.0909 79.6515 56.0909 83.4545H57.0909ZM54.7273 72.9091L55.6217 72.4619C53.9952 69.209 51.6577 66.6289 48.6185 64.7414L48.0909 65.5909L47.5633 66.4404C50.2817 68.1287 52.3684 70.4274 53.8328 73.3563L54.7273 72.9091ZM48.0909 65.5909L48.6225 64.7439C45.5915 62.8415 42.0374 61.9091 38 61.9091V62.9091V63.9091C41.7202 63.9091 44.8933 64.7646 47.5593 66.4379L48.0909 65.5909ZM38 62.9091V61.9091C33.5542 61.9091 29.6553 63.0155 26.347 65.2638L26.9091 66.0909L27.4712 66.918C30.4053 64.9239 33.9003 63.9091 38 63.9091V62.9091ZM26.9091 66.0909L26.3488 65.2626C23.1137 67.451 20.6197 70.3111 18.8767 73.8287L19.7727 74.2727L20.6688 74.7167C22.2591 71.5071 24.5226 68.9126 27.4694 66.9192L26.9091 66.0909ZM19.7727 74.2727L18.8767 73.8287C17.1399 77.3339 16.2727 81.0924 16.2727 85.0909H17.2727H18.2727C18.2727 81.3924 19.0722 77.9388 20.6688 74.7167L19.7727 74.2727ZM17.2727 85.0909H16.2727V91.2727H17.2727H18.2727V85.0909H17.2727ZM17.2727 91.2727H16.2727C16.2727 96.6566 17.2006 101.287 19.1041 105.126L20 104.682L20.8959 104.238C19.163 100.743 18.2727 96.4343 18.2727 91.2727H17.2727ZM20 104.682L19.1086 105.135C21.0371 108.929 23.7265 111.85 27.1779 113.864L27.6818 113L28.1857 112.136C25.0917 110.331 22.6598 107.707 20.8914 104.229L20 104.682ZM27.6818 113L27.184 113.867C30.6295 115.845 34.6091 116.818 39.0909 116.818V115.818V114.818C34.906 114.818 31.2796 113.912 28.1797 112.133L27.6818 113ZM39.0909 115.818V116.818C42.0019 116.818 44.6604 116.411 47.0548 115.581L46.7273 114.636L46.3997 113.692C44.2487 114.437 41.8163 114.818 39.0909 114.818V115.818ZM46.7273 114.636L47.062 115.579C49.4916 114.716 51.6008 113.43 53.3757 111.72L52.6818 111L51.9879 110.28C50.4295 111.782 48.569 112.921 46.3925 113.694L46.7273 114.636ZM52.6818 111L53.3824 111.714C55.164 109.964 56.5271 107.806 57.4818 105.26L56.5455 104.909L55.6091 104.558C54.7456 106.861 53.533 108.763 51.9812 110.286L52.6818 111ZM56.5455 104.909L56.2752 105.872L66.6388 108.781L66.9091 107.818L67.1794 106.855L56.8157 103.946L56.5455 104.909ZM66.9091 107.818L65.954 107.522C64.9098 110.886 63.1577 113.841 60.6898 116.396L61.4091 117.091L62.1284 117.786C64.812 115.007 66.7265 111.78 67.8642 108.115L66.9091 107.818ZM61.4091 117.091L60.6938 116.392C58.2269 118.917 55.1685 120.903 51.4987 122.342L51.8636 123.273L52.2286 124.204C56.1346 122.673 59.4397 120.538 62.1244 117.79L61.4091 117.091ZM51.8636 123.273L51.5052 122.339C47.8489 123.743 43.7155 124.455 39.0909 124.455V125.455V126.455C43.9208 126.455 48.3026 125.711 52.2221 124.206L51.8636 123.273ZM95.7727 120.818L95.2255 121.655L95.2255 121.655L95.7727 120.818ZM84.9545 70.6818L84.0542 70.2466L84.0532 70.2488L84.9545 70.6818ZM95.9545 57.9091L96.5005 58.7469L96.5018 58.7461L95.9545 57.9091ZM135.455 63.6364L136.247 63.027L136.247 63.027L135.455 63.6364ZM140.136 75.0909V76.0909H141.285L141.127 74.9533L140.136 75.0909ZM129.409 75.0909L128.441 75.3399L128.634 76.0909H129.409V75.0909ZM123.955 66.6364L123.289 67.3829L123.298 67.3904L123.955 66.6364ZM101.682 66.1818L102.249 67.0052L102.251 67.004L101.682 66.1818ZM94.3636 75.3182L93.4504 74.9107L93.4489 74.914L94.3636 75.3182ZM94.3182 103.182L93.3976 103.572L93.4001 103.578L94.3182 103.182ZM101.591 112.5L101.013 113.316L101.016 113.318L101.591 112.5ZM120.273 114.364L119.88 113.444L119.88 113.444L120.273 114.364ZM126.045 110.182L126.801 110.837L126.801 110.837L126.045 110.182ZM129.409 103.636V102.636H128.637L128.442 103.383L129.409 103.636ZM140.136 103.636L141.126 103.782L141.294 102.636H140.136V103.636ZM135.636 114.773L134.827 114.186L134.826 114.187L135.636 114.773ZM126.227 122.591L126.669 123.488L126.672 123.487L126.227 122.591ZM112.682 125.455V124.455C106.299 124.455 100.86 122.95 96.32 119.981L95.7727 120.818L95.2255 121.655C100.14 124.869 105.974 126.455 112.682 126.455V125.455ZM95.7727 120.818L96.32 119.981C91.7575 116.998 88.2406 112.888 85.7689 107.621L84.8636 108.045L83.9584 108.47C86.5776 114.052 90.3334 118.456 95.2255 121.655L95.7727 120.818ZM84.8636 108.045L85.7689 107.621C83.2952 102.349 82.0455 96.3012 82.0455 89.4545H81.0455H80.0455C80.0455 96.5472 81.3411 102.893 83.9584 108.47L84.8636 108.045ZM81.0455 89.4545H82.0455C82.0455 82.487 83.3254 76.3819 85.8559 71.1149L84.9545 70.6818L84.0532 70.2488C81.3716 75.8302 80.0455 82.2402 80.0455 89.4545H81.0455ZM84.9545 70.6818L85.8549 71.117C88.4186 65.8127 91.9684 61.7001 96.5005 58.7469L95.9545 57.9091L95.4086 57.0713C90.5468 60.2393 86.7632 64.6418 84.0542 70.2466L84.9545 70.6818ZM95.9545 57.9091L96.5018 58.7461C101.048 55.7736 106.368 54.2727 112.5 54.2727V53.2727V52.2727C106.026 52.2727 100.316 53.8627 95.4073 57.0721L95.9545 57.9091ZM112.5 53.2727V54.2727C117.283 54.2727 121.562 55.1579 125.354 56.908L125.773 56L126.192 55.092C122.105 53.2057 117.535 52.2727 112.5 52.2727V53.2727ZM125.773 56L125.354 56.908C129.154 58.6619 132.25 61.1079 134.662 64.2457L135.455 63.6364L136.247 63.027C133.629 59.6194 130.27 56.9745 126.192 55.092L125.773 56ZM135.455 63.6364L134.662 64.2457C137.064 67.3717 138.562 71.0246 139.146 75.2285L140.136 75.0909L141.127 74.9533C140.499 70.4299 138.875 66.4465 136.247 63.027L135.455 63.6364ZM140.136 75.0909V74.0909H129.409V75.0909V76.0909H140.136V75.0909ZM129.409 75.0909L130.378 74.8419C129.502 71.4379 127.56 68.4508 124.611 65.8823L123.955 66.6364L123.298 67.3904C125.985 69.731 127.68 72.3803 128.441 75.3399L129.409 75.0909ZM123.955 66.6364L124.62 65.8898C121.604 63.2018 117.587 61.9091 112.682 61.9091V62.9091V63.9091C117.231 63.9091 120.729 65.1012 123.289 67.3829L123.955 66.6364ZM112.682 62.9091V61.9091C108.316 61.9091 104.447 63.0515 101.113 65.3596L101.682 66.1818L102.251 67.004C105.22 64.9485 108.684 63.9091 112.682 63.9091V62.9091ZM101.682 66.1818L101.114 65.3585C97.8218 67.628 95.2723 70.8272 93.4504 74.9107L94.3636 75.3182L95.2769 75.7256C96.9702 71.9303 99.2994 69.0386 102.249 67.0052L101.682 66.1818ZM94.3636 75.3182L93.4489 74.914C91.6539 78.9765 90.7727 83.7107 90.7727 89.0909H91.7727H92.7727C92.7727 83.9257 93.6188 79.478 95.2783 75.7223L94.3636 75.3182ZM91.7727 89.0909H90.7727C90.7727 94.5876 91.6372 99.4229 93.3976 103.572L94.3182 103.182L95.2388 102.791C93.6052 98.9408 92.7727 94.382 92.7727 89.0909H91.7727ZM94.3182 103.182L93.4001 103.578C95.1898 107.723 97.722 110.984 101.013 113.316L101.591 112.5L102.169 111.684C99.2174 109.592 96.9011 106.641 95.2362 102.785L94.3182 103.182ZM101.591 112.5L101.016 113.318C104.353 115.661 108.256 116.818 112.682 116.818V115.818V114.818C108.623 114.818 105.132 113.764 102.165 111.682L101.591 112.5ZM112.682 115.818V116.818C115.587 116.818 118.253 116.312 120.665 115.283L120.273 114.364L119.88 113.444C117.747 114.354 115.352 114.818 112.682 114.818V115.818ZM120.273 114.364L120.665 115.283C123.074 114.256 125.123 112.773 126.801 110.837L126.045 110.182L125.29 109.527C123.816 111.227 122.017 112.532 119.88 113.444L120.273 114.364ZM126.045 110.182L126.801 110.837C128.486 108.892 129.675 106.569 130.376 103.89L129.409 103.636L128.442 103.383C127.81 105.794 126.756 107.835 125.29 109.527L126.045 110.182ZM129.409 103.636V104.636H140.136V103.636V102.636H129.409V103.636ZM140.136 103.636L139.147 103.491C138.564 107.456 137.124 111.016 134.827 114.186L135.636 114.773L136.446 115.36C138.937 111.923 140.497 108.059 141.126 103.782L140.136 103.636ZM135.636 114.773L134.826 114.187C132.565 117.318 129.559 119.822 125.783 121.695L126.227 122.591L126.672 123.487C130.714 121.481 133.981 118.773 136.447 115.358L135.636 114.773ZM126.227 122.591L125.786 121.694C122.068 123.523 117.709 124.455 112.682 124.455V125.455V126.455C117.957 126.455 122.629 125.477 126.669 123.488L126.227 122.591ZM186.182 54.1818H187.182V53.1818H186.182V54.1818ZM186.182 63.2727V64.2727H187.182V63.2727H186.182ZM150 63.2727H149V64.2727H150V63.2727ZM150 54.1818V53.1818H149V54.1818H150ZM160.545 37.4545V36.4545H159.545V37.4545H160.545ZM171.273 37.4545H172.273V36.4545H171.273V37.4545ZM172.591 110.818L171.726 111.32L171.732 111.33L171.738 111.34L172.591 110.818ZM176.045 113.818L175.699 114.756L175.711 114.761L175.723 114.765L176.045 113.818ZM183.455 114.364L183.613 115.351L183.632 115.348L183.651 115.344L183.455 114.364ZM185.273 114L186.248 113.779L186.033 112.828L185.077 113.019L185.273 114ZM187.455 123.636L187.806 124.573L188.623 124.266L188.43 123.416L187.455 123.636ZM184.409 124.455L184.204 123.476L184.193 123.478L184.183 123.481L184.409 124.455ZM170.545 122.955L170.133 123.866L170.137 123.867L170.545 122.955ZM163.364 117L162.546 117.576L162.551 117.582L163.364 117ZM186.182 54.1818H185.182V63.2727H186.182H187.182V54.1818H186.182ZM186.182 63.2727V62.2727H150V63.2727V64.2727H186.182V63.2727ZM150 63.2727H151V54.1818H150H149V63.2727H150ZM150 54.1818V55.1818H186.182V54.1818V53.1818H150V54.1818ZM160.545 37.4545V38.4545H171.273V37.4545V36.4545H160.545V37.4545ZM171.273 37.4545H170.273V104H171.273H172.273V37.4545H171.273ZM171.273 104H170.273C170.273 107.094 170.716 109.578 171.726 111.32L172.591 110.818L173.456 110.316C172.709 109.028 172.273 106.966 172.273 104H171.273ZM172.591 110.818L171.738 111.34C172.743 112.982 174.059 114.15 175.699 114.756L176.045 113.818L176.392 112.88C175.244 112.456 174.257 111.624 173.444 110.296L172.591 110.818ZM176.045 113.818L175.723 114.765C177.256 115.287 178.865 115.545 180.545 115.545V114.545V113.545C179.074 113.545 177.683 113.319 176.368 112.872L176.045 113.818ZM180.545 114.545V115.545C181.755 115.545 182.783 115.484 183.613 115.351L183.455 114.364L183.297 113.376C182.611 113.486 181.699 113.545 180.545 113.545V114.545ZM183.455 114.364L183.651 115.344C184.408 115.193 185.014 115.071 185.469 114.981L185.273 114L185.077 113.019C184.622 113.11 184.016 113.232 183.258 113.383L183.455 114.364ZM185.273 114L184.297 114.221L186.479 123.857L187.455 123.636L188.43 123.416L186.248 113.779L185.273 114ZM187.455 123.636L187.103 122.7C186.446 122.947 185.487 123.207 184.204 123.476L184.409 124.455L184.614 125.433C185.937 125.156 187.009 124.871 187.806 124.573L187.455 123.636ZM184.409 124.455L184.183 123.481C182.981 123.76 181.412 123.909 179.455 123.909V124.909V125.909C181.497 125.909 183.232 125.755 184.636 125.429L184.409 124.455ZM179.455 124.909V123.909C176.572 123.909 173.742 123.29 170.954 122.042L170.545 122.955L170.137 123.867C173.168 125.225 176.276 125.909 179.455 125.909V124.909ZM170.545 122.955L170.958 122.044C168.245 120.816 165.988 118.947 164.177 116.418L163.364 117L162.551 117.582C164.558 120.386 167.088 122.487 170.133 123.866L170.545 122.955ZM163.364 117L164.181 116.424C162.447 113.963 161.545 110.814 161.545 106.909H160.545H159.545C159.545 111.125 160.522 114.703 162.546 117.576L163.364 117ZM160.545 106.909H161.545V37.4545H160.545H159.545V106.909H160.545ZM202.318 124H201.318V125H202.318V124ZM202.318 54.1818V53.1818H201.318V54.1818H202.318ZM212.682 54.1818H213.682V53.1818H212.682V54.1818ZM212.682 64.7273H211.682V65.7273H212.682V64.7273ZM213.409 64.7273V65.7273H214.106L214.347 65.073L213.409 64.7273ZM220.318 56.3182L219.776 55.478L219.776 55.478L220.318 56.3182ZM237.227 53.2727H238.227V52.3677L237.327 52.2777L237.227 53.2727ZM237.227 64.1818L236.985 65.152L238.227 65.4626V64.1818H237.227ZM234.727 63.7727L234.563 64.7591L234.576 64.7613L234.589 64.7631L234.727 63.7727ZM221.591 65.5909L222.058 66.475L222.062 66.473L221.591 65.5909ZM215.318 71.4091L214.469 70.8809L214.467 70.8838L215.318 71.4091ZM213.045 124V125H214.045V124H213.045ZM202.318 124H203.318V54.1818H202.318H201.318V124H202.318ZM202.318 54.1818V55.1818H212.682V54.1818V53.1818H202.318V54.1818ZM212.682 54.1818H211.682V64.7273H212.682H213.682V54.1818H212.682ZM212.682 64.7273V65.7273H213.409V64.7273V63.7273H212.682V64.7273ZM213.409 64.7273L214.347 65.073C215.539 61.838 217.694 59.202 220.86 57.1584L220.318 56.3182L219.776 55.478C216.275 57.7374 213.824 60.7075 212.471 64.3816L213.409 64.7273ZM220.318 56.3182L220.86 57.1584C224.023 55.1169 227.591 54.0909 231.591 54.0909V53.0909V52.0909C227.228 52.0909 223.28 53.2164 219.776 55.478L220.318 56.3182ZM231.591 53.0909V54.0909C232.367 54.0909 233.343 54.1059 234.52 54.136L234.545 53.1364L234.571 52.1367C233.384 52.1063 232.39 52.0909 231.591 52.0909V53.0909ZM234.545 53.1364L234.52 54.136C235.695 54.1662 236.559 54.2109 237.128 54.2678L237.227 53.2727L237.327 52.2777C236.683 52.2133 235.759 52.1672 234.571 52.1367L234.545 53.1364ZM237.227 53.2727H236.227V64.1818H237.227H238.227V53.2727H237.227ZM237.227 64.1818L237.47 63.2117C237.044 63.1052 236.154 62.9621 234.865 62.7823L234.727 63.7727L234.589 64.7631C235.907 64.947 236.683 65.0766 236.985 65.152L237.227 64.1818ZM234.727 63.7727L234.892 62.7863C233.559 62.5643 232.156 62.4545 230.682 62.4545V63.4545V64.4545C232.057 64.4545 233.35 64.5569 234.563 64.7591L234.727 63.7727ZM230.682 63.4545V62.4545C227.144 62.4545 223.948 63.1981 221.12 64.7088L221.591 65.5909L222.062 66.473C224.567 65.1353 227.432 64.4545 230.682 64.4545V63.4545ZM221.591 65.5909L221.123 64.7069C218.334 66.1819 216.11 68.2428 214.469 70.881L215.318 71.4091L216.167 71.9372C217.617 69.6057 219.575 67.7878 222.058 66.4749L221.591 65.5909ZM215.318 71.4091L214.467 70.8838C212.846 73.5107 212.045 76.4989 212.045 79.8182H213.045H214.045C214.045 76.8344 214.76 74.2166 216.169 71.9344L215.318 71.4091ZM213.045 79.8182H212.045V124H213.045H214.045V79.8182H213.045ZM213.045 124V123H202.318V124V125H213.045V124ZM259.591 120.955L259.055 121.799L259.058 121.8L259.591 120.955ZM248.5 108.364L247.602 108.803L247.604 108.807L248.5 108.364ZM248.5 70.4091L247.603 69.9679L247.601 69.972L248.5 70.4091ZM259.591 57.7727L259.058 56.9269L259.055 56.9284L259.591 57.7727ZM292.727 57.7727L292.191 58.6171L292.194 58.6186L292.727 57.7727ZM303.818 70.4091L302.919 70.8462L302.921 70.8503L303.818 70.4091ZM303.818 108.364L302.922 107.92L302.92 107.925L303.818 108.364ZM292.727 120.955L292.194 120.109L292.191 120.11L292.727 120.955ZM288 112.136L287.378 111.353L287.378 111.353L288 112.136ZM294.864 102.455L295.801 102.803L295.801 102.803L294.864 102.455ZM294.864 76.4091L295.802 76.0634L295.802 76.0634L294.864 76.4091ZM288 66.6364L288.627 65.857L288.627 65.857L288 66.6364ZM264.364 66.6364L263.737 65.857L263.737 65.857L264.364 66.6364ZM257.5 76.4091L256.562 76.0634L256.562 76.0634L257.5 76.4091ZM257.5 102.455L256.563 102.803L256.563 102.803L257.5 102.455ZM264.364 112.136L264.986 111.353L264.986 111.353L264.364 112.136ZM276.182 125.455V124.455C270.044 124.455 264.703 122.996 260.124 120.109L259.591 120.955L259.058 121.8C263.994 124.913 269.713 126.455 276.182 126.455V125.455ZM259.591 120.955L260.127 120.11C255.566 117.216 251.988 113.163 249.396 107.92L248.5 108.364L247.604 108.807C250.345 114.352 254.162 118.693 259.055 121.799L259.591 120.955ZM248.5 108.364L249.398 107.925C246.841 102.692 245.545 96.5447 245.545 89.4545H244.545H243.545C243.545 96.7886 244.886 103.247 247.602 108.803L248.5 108.364ZM244.545 89.4545H245.545C245.545 82.3025 246.841 76.1091 249.399 70.8462L248.5 70.4091L247.601 69.972C244.886 75.5576 243.545 82.0611 243.545 89.4545H244.545ZM248.5 70.4091L249.397 70.8503C251.99 65.5775 255.567 61.5107 260.127 58.6171L259.591 57.7727L259.055 56.9284C254.16 60.0348 250.344 64.3922 247.603 69.9679L248.5 70.4091ZM259.591 57.7727L260.124 58.6186C264.703 55.7311 270.044 54.2727 276.182 54.2727V53.2727V52.2727C269.713 52.2727 263.994 53.8143 259.058 56.9269L259.591 57.7727ZM276.182 53.2727V54.2727C282.32 54.2727 287.644 55.7311 292.191 58.6171L292.727 57.7727L293.263 56.9284C288.356 53.8143 282.65 52.2727 276.182 52.2727V53.2727ZM292.727 57.7727L292.194 58.6186C296.782 61.5119 300.358 65.5771 302.919 70.8462L303.818 70.4091L304.718 69.972C302.006 64.3926 298.187 60.0335 293.261 56.9269L292.727 57.7727ZM303.818 70.4091L302.921 70.8503C305.508 76.1121 306.818 82.3041 306.818 89.4545H307.818H308.818C308.818 82.0596 307.462 75.5546 304.716 69.9679L303.818 70.4091ZM307.818 89.4545H306.818C306.818 96.5431 305.508 102.689 302.922 107.92L303.818 108.364L304.715 108.807C307.462 103.25 308.818 96.7902 308.818 89.4545H307.818ZM303.818 108.364L302.92 107.925C300.359 113.163 296.784 117.214 292.194 120.109L292.727 120.955L293.261 121.8C298.186 118.695 302.004 114.352 304.717 108.803L303.818 108.364ZM292.727 120.955L292.191 120.11C287.644 122.996 282.32 124.455 276.182 124.455V125.455V126.455C282.65 126.455 288.356 124.913 293.263 121.799L292.727 120.955ZM276.182 115.818V116.818C281.146 116.818 285.319 115.543 288.622 112.919L288 112.136L287.378 111.353C284.499 113.639 280.794 114.818 276.182 114.818V115.818ZM288 112.136L288.622 112.919C291.867 110.342 294.258 106.959 295.801 102.803L294.864 102.455L293.926 102.107C292.499 105.95 290.315 109.021 287.378 111.353L288 112.136ZM294.864 102.455L295.801 102.803C297.331 98.6812 298.091 94.2289 298.091 89.4545H297.091H296.091C296.091 94.0136 295.366 98.2279 293.926 102.107L294.864 102.455ZM297.091 89.4545H298.091C298.091 84.6801 297.331 80.2136 295.802 76.0634L294.864 76.4091L293.925 76.7548C295.366 80.6652 296.091 84.8956 296.091 89.4545H297.091ZM294.864 76.4091L295.802 76.0634C294.26 71.8776 291.87 68.4648 288.627 65.857L288 66.6364L287.373 67.4157C290.311 69.7776 292.498 72.88 293.925 76.7548L294.864 76.4091ZM288 66.6364L288.627 65.857C285.323 63.2015 281.149 61.9091 276.182 61.9091V62.9091V63.9091C280.791 63.9091 284.495 65.1016 287.373 67.4157L288 66.6364ZM276.182 62.9091V61.9091C271.215 61.9091 267.04 63.2015 263.737 65.857L264.364 66.6364L264.99 67.4157C267.869 65.1016 271.573 63.9091 276.182 63.9091V62.9091ZM264.364 66.6364L263.737 65.857C260.493 68.4648 258.104 71.8776 256.562 76.0634L257.5 76.4091L258.438 76.7548C259.866 72.88 262.052 69.7776 264.99 67.4157L264.364 66.6364ZM257.5 76.4091L256.562 76.0634C255.033 80.2136 254.273 84.6801 254.273 89.4545H255.273H256.273C256.273 84.8956 256.998 80.6652 258.438 76.7548L257.5 76.4091ZM255.273 89.4545H254.273C254.273 94.2289 255.033 98.6812 256.563 102.803L257.5 102.455L258.437 102.107C256.998 98.2279 256.273 94.0136 256.273 89.4545H255.273ZM257.5 102.455L256.563 102.803C258.106 106.959 260.496 110.342 263.742 112.919L264.364 112.136L264.986 111.353C262.049 109.021 259.864 105.95 258.437 102.107L257.5 102.455ZM264.364 112.136L263.742 112.919C267.045 115.543 271.218 116.818 276.182 116.818V115.818V114.818C271.57 114.818 267.864 113.639 264.986 111.353L264.364 112.136ZM324.193 150.182H323.193V151.182H324.193V150.182ZM324.193 54.1818V53.1818H323.193V54.1818H324.193ZM334.557 54.1818H335.557V53.1818H334.557V54.1818ZM334.557 65.2727H333.557V66.2727H334.557V65.2727ZM335.83 65.2727V66.2727H336.372L336.668 65.8177L335.83 65.2727ZM339.102 60.6364L338.301 60.0384L338.299 60.0405L339.102 60.6364ZM345.193 55.5455L345.684 56.4168L345.687 56.4149L345.193 55.5455ZM371.557 57.6818L372.105 56.8454L372.105 56.8454L371.557 57.6818ZM382.057 70.1818L382.963 69.7592L382.963 69.7592L382.057 70.1818ZM382.057 108.5L382.963 108.923L382.964 108.921L382.057 108.5ZM371.602 121.045L372.153 121.88L372.157 121.878L371.602 121.045ZM345.42 123.227L344.931 124.099L344.938 124.103L345.42 123.227ZM339.193 118.091L338.393 118.691L338.398 118.697L339.193 118.091ZM335.83 113.273L336.68 112.746L336.387 112.273H335.83V113.273ZM334.92 113.273V112.273H333.92V113.273H334.92ZM334.92 150.182V151.182H335.92V150.182H334.92ZM337.057 103.045L336.123 103.403L336.124 103.406L337.057 103.045ZM343.83 112.455L343.222 113.249L343.227 113.253L343.83 112.455ZM365.966 112.273L366.585 113.058L366.586 113.057L365.966 112.273ZM372.784 102.636L371.849 102.281L371.848 102.284L372.784 102.636ZM372.83 75.8182L371.893 76.1685L371.896 76.1772L372.83 75.8182ZM366.057 66.4091L365.443 67.1985L365.452 67.2053L366.057 66.4091ZM343.739 66.2273L344.331 67.0332L344.336 67.0292L343.739 66.2273ZM337.011 75.4091L337.944 75.7705L337.945 75.7681L337.011 75.4091ZM324.193 150.182H325.193V54.1818H324.193H323.193V150.182H324.193ZM324.193 54.1818V55.1818H334.557V54.1818V53.1818H324.193V54.1818ZM334.557 54.1818H333.557V65.2727H334.557H335.557V54.1818H334.557ZM334.557 65.2727V66.2727H335.83V65.2727V64.2727H334.557V65.2727ZM335.83 65.2727L336.668 65.8177C337.44 64.6301 338.517 63.1032 339.905 61.2322L339.102 60.6364L338.299 60.0405C336.899 61.9271 335.795 63.4911 334.991 64.7277L335.83 65.2727ZM339.102 60.6364L339.904 61.2343C341.225 59.4629 343.137 57.851 345.684 56.4168L345.193 55.5455L344.702 54.6741C341.976 56.2096 339.828 57.9916 338.301 60.0384L339.102 60.6364ZM345.193 55.5455L345.687 56.4149C348.148 55.0169 351.562 54.2727 356.011 54.2727V53.2727V52.2727C351.37 52.2727 347.572 53.0438 344.699 54.676L345.193 55.5455ZM356.011 53.2727V54.2727C361.715 54.2727 366.702 55.6958 371.009 58.5182L371.557 57.6818L372.105 56.8454C367.442 53.7891 362.065 52.2727 356.011 52.2727V53.2727ZM371.557 57.6818L371.009 58.5182C375.321 61.3447 378.705 65.3599 381.151 70.6044L382.057 70.1818L382.963 69.7592C380.378 64.2158 376.762 59.8977 372.105 56.8454L371.557 57.6818ZM382.057 70.1818L381.151 70.6044C383.591 75.839 384.83 82.0523 384.83 89.2727H385.83H386.83C386.83 81.8265 385.553 75.3125 382.963 69.7592L382.057 70.1818ZM385.83 89.2727H384.83C384.83 96.5549 383.591 102.814 381.15 108.079L382.057 108.5L382.964 108.921C385.553 103.337 386.83 96.7784 386.83 89.2727H385.83ZM382.057 108.5L381.151 108.077C378.704 113.324 375.333 117.356 371.048 120.213L371.602 121.045L372.157 121.878C376.781 118.795 380.379 114.464 382.963 108.923L382.057 108.5ZM371.602 121.045L371.052 120.211C366.775 123.033 361.834 124.455 356.193 124.455V125.455V126.455C362.189 126.455 367.52 124.937 372.153 121.88L371.602 121.045ZM356.193 125.455V124.455C351.805 124.455 348.4 123.726 345.903 122.351L345.42 123.227L344.938 124.103C347.835 125.698 351.612 126.455 356.193 126.455V125.455ZM345.42 123.227L345.91 122.355C343.299 120.889 341.34 119.259 339.989 117.485L339.193 118.091L338.398 118.697C339.955 120.741 342.148 122.536 344.931 124.099L345.42 123.227ZM339.193 118.091L339.993 117.491C338.547 115.563 337.446 113.983 336.68 112.746L335.83 113.273L334.979 113.799C335.789 115.108 336.93 116.74 338.393 118.691L339.193 118.091ZM335.83 113.273V112.273H334.92V113.273V114.273H335.83V113.273ZM334.92 113.273H333.92V150.182H334.92H335.92V113.273H334.92ZM334.92 150.182V149.182H324.193V150.182V151.182H334.92V150.182ZM334.739 89.0909H333.739C333.739 94.4598 334.525 99.2367 336.123 103.403L337.057 103.045L337.991 102.687C336.497 98.7936 335.739 94.2675 335.739 89.0909H334.739ZM337.057 103.045L336.124 103.406C337.726 107.552 340.085 110.848 343.222 113.249L343.83 112.455L344.437 111.66C341.634 109.515 339.479 106.539 337.99 102.685L337.057 103.045ZM343.83 112.455L343.227 113.253C346.396 115.646 350.254 116.818 354.739 116.818V115.818V114.818C350.618 114.818 347.202 113.748 344.432 111.657L343.83 112.455ZM354.739 115.818V116.818C359.407 116.818 363.379 115.584 366.585 113.058L365.966 112.273L365.347 111.487C362.553 113.689 359.04 114.818 354.739 114.818V115.818ZM365.966 112.273L366.586 113.057C369.775 110.538 372.149 107.169 373.72 102.988L372.784 102.636L371.848 102.284C370.389 106.165 368.218 109.22 365.346 111.488L365.966 112.273ZM372.784 102.636L373.719 102.992C375.313 98.8027 376.102 94.1649 376.102 89.0909H375.102H374.102C374.102 93.9563 373.346 98.3488 371.849 102.281L372.784 102.636ZM375.102 89.0909H376.102C376.102 84.0788 375.329 79.5302 373.763 75.4592L372.83 75.8182L371.896 76.1772C373.361 79.9849 374.102 84.2849 374.102 89.0909H375.102ZM372.83 75.8182L373.766 75.4678C372.223 71.3419 369.859 68.043 366.662 65.6129L366.057 66.4091L365.452 67.2053C368.315 69.3813 370.467 72.355 371.893 76.1685L372.83 75.8182ZM366.057 66.4091L366.671 65.6197C363.463 63.1246 359.461 61.9091 354.739 61.9091V62.9091V63.9091C359.107 63.9091 362.651 65.0269 365.443 67.1984L366.057 66.4091ZM354.739 62.9091V61.9091C350.199 61.9091 346.313 63.0628 343.141 65.4253L343.739 66.2273L344.336 67.0292C347.104 64.9675 350.551 63.9091 354.739 63.9091V62.9091ZM343.739 66.2273L343.147 65.4214C340.001 67.7322 337.652 70.9588 336.078 75.0501L337.011 75.4091L337.945 75.7681C339.401 71.9806 341.537 69.0859 344.331 67.0332L343.739 66.2273ZM337.011 75.4091L336.079 75.0477C334.51 79.0963 333.739 83.7842 333.739 89.0909H334.739H335.739C335.739 83.9734 336.483 79.5401 337.944 75.7705L337.011 75.4091ZM401.739 149.727L401.947 148.749L401.937 148.747L401.927 148.745L401.739 149.727ZM398.784 148.909L397.823 148.632L397.593 149.431L398.337 149.804L398.784 148.909ZM401.511 139.455L401.759 138.486L400.819 138.245L400.551 139.177L401.511 139.455ZM408.42 140.182L408.33 139.186L408.33 139.186L408.42 140.182ZM413.739 137.5L413.032 136.793L413.025 136.8L413.018 136.807L413.739 137.5ZM418.057 129.818L418.995 130.163L418.996 130.162L418.057 129.818ZM420.057 124.364L420.996 124.708L421.122 124.363L420.995 124.018L420.057 124.364ZM394.239 54.1818V53.1818H392.805L393.3 54.5271L394.239 54.1818ZM405.875 54.1818L406.82 53.8545L406.587 53.1818H405.875V54.1818ZM425.148 109.818L424.203 110.146L424.436 110.818H425.148V109.818ZM425.875 109.818V110.818H426.587L426.82 110.146L425.875 109.818ZM445.148 54.1818V53.1818H444.436L444.203 53.8545L445.148 54.1818ZM456.784 54.1818L457.722 54.5292L458.221 53.1818H456.784V54.1818ZM427.148 134.182L426.21 133.834L426.21 133.835L427.148 134.182ZM422.193 143.136L421.425 142.496L421.421 142.501L422.193 143.136ZM415.33 148.455L414.925 147.54L414.921 147.542L415.33 148.455ZM406.602 150.182V149.182C404.838 149.182 403.288 149.035 401.947 148.749L401.739 149.727L401.531 150.705C403.038 151.026 404.731 151.182 406.602 151.182V150.182ZM401.739 149.727L401.927 148.745C400.503 148.472 399.641 148.219 399.231 148.015L398.784 148.909L398.337 149.804C399.018 150.144 400.126 150.437 401.551 150.709L401.739 149.727ZM398.784 148.909L399.745 149.186L402.472 139.732L401.511 139.455L400.551 139.177L397.823 148.632L398.784 148.909ZM401.511 139.455L401.264 140.423C403.945 141.109 406.366 141.373 408.511 141.178L408.42 140.182L408.33 139.186C406.475 139.355 404.29 139.133 401.759 138.486L401.511 139.455ZM408.42 140.182L408.511 141.178C410.777 140.972 412.767 139.952 414.459 138.193L413.739 137.5L413.018 136.807C411.62 138.26 410.064 139.028 408.33 139.186L408.42 140.182ZM413.739 137.5L414.446 138.207C416.172 136.481 417.673 133.763 418.995 130.163L418.057 129.818L417.118 129.473C415.835 132.965 414.457 135.367 413.032 136.793L413.739 137.5ZM418.057 129.818L418.996 130.162L420.996 124.708L420.057 124.364L419.118 124.019L417.118 129.474L418.057 129.818ZM420.057 124.364L420.995 124.018L395.177 53.8366L394.239 54.1818L393.3 54.5271L419.118 124.709L420.057 124.364ZM394.239 54.1818V55.1818H405.875V54.1818V53.1818H394.239V54.1818ZM405.875 54.1818L404.93 54.5091L424.203 110.146L425.148 109.818L426.093 109.491L406.82 53.8545L405.875 54.1818ZM425.148 109.818V110.818H425.875V109.818V108.818H425.148V109.818ZM425.875 109.818L426.82 110.146L446.093 54.5091L445.148 54.1818L444.203 53.8545L424.93 109.491L425.875 109.818ZM445.148 54.1818V55.1818H456.784V54.1818V53.1818H445.148V54.1818ZM456.784 54.1818L455.846 53.8344L426.21 133.834L427.148 134.182L428.085 134.529L457.722 54.5292L456.784 54.1818ZM427.148 134.182L426.21 133.835C424.906 137.36 423.306 140.239 421.425 142.496L422.193 143.136L422.961 143.777C425.02 141.307 426.722 138.216 428.086 134.529L427.148 134.182ZM422.193 143.136L421.421 142.501C419.542 144.785 417.376 146.457 414.925 147.54L415.33 148.455L415.734 149.369C418.495 148.149 420.905 146.275 422.965 143.772L422.193 143.136ZM415.33 148.455L414.921 147.542C412.492 148.628 409.725 149.182 406.602 149.182V150.182V151.182C409.964 151.182 413.016 150.584 415.738 149.367L415.33 148.455ZM468.614 122.318L469.321 121.611L469.321 121.611L468.614 122.318ZM480.159 110.773L480.866 110.066L480.866 110.066L480.159 110.773ZM481.432 120.636L480.578 120.116L480.573 120.123L480.569 120.131L481.432 120.636ZM478.477 123.636L478.992 124.494L478.998 124.49L478.477 123.636ZM474.386 124.727V123.727C472.413 123.727 470.742 123.032 469.321 121.611L468.614 122.318L467.907 123.025C469.697 124.816 471.875 125.727 474.386 125.727V124.727ZM468.614 122.318L469.321 121.611C467.9 120.19 467.205 118.519 467.205 116.545H466.205H465.205C465.205 119.057 466.116 121.234 467.907 123.025L468.614 122.318ZM466.205 116.545H467.205C467.205 114.572 467.9 112.901 469.321 111.48L468.614 110.773L467.907 110.066C466.116 111.857 465.205 114.034 465.205 116.545H466.205ZM468.614 110.773L469.321 111.48C470.742 110.059 472.413 109.364 474.386 109.364V108.364V107.364C471.875 107.364 469.697 108.275 467.907 110.066L468.614 110.773ZM474.386 108.364V109.364C476.36 109.364 478.031 110.059 479.452 111.48L480.159 110.773L480.866 110.066C479.075 108.275 476.898 107.364 474.386 107.364V108.364ZM480.159 110.773L479.452 111.48C480.873 112.901 481.568 114.572 481.568 116.545H482.568H483.568C483.568 114.034 482.657 111.857 480.866 110.066L480.159 110.773ZM482.568 116.545H481.568C481.568 117.851 481.238 119.033 480.578 120.116L481.432 120.636L482.286 121.157C483.141 119.754 483.568 118.21 483.568 116.545H482.568ZM481.432 120.636L480.569 120.131C479.926 121.229 479.059 122.11 477.957 122.783L478.477 123.636L478.998 124.49C480.38 123.647 481.483 122.528 482.295 121.142L481.432 120.636ZM478.477 123.636L477.963 122.779C476.917 123.406 475.734 123.727 474.386 123.727V124.727V125.727C476.069 125.727 477.613 125.321 478.992 124.494L478.477 123.636ZM510.318 123.136L509.892 124.041L509.899 124.044L510.318 123.136ZM501.727 115.818L500.893 116.369L500.895 116.373L501.727 115.818ZM500.909 94.4545L501.754 94.9901L501.757 94.9855L500.909 94.4545ZM515.955 85.3636L516.169 86.3405L516.175 86.3389L515.955 85.3636ZM525.636 83.6364L525.509 82.6445L525.507 82.6448L525.636 83.6364ZM535.955 82.4091L536.057 83.4038L536.067 83.4027L535.955 82.4091ZM541.773 80.9091L541.283 80.0369L541.274 80.0422L541.773 80.9091ZM539.955 66.4545L539.239 67.1529L539.243 67.1573L539.955 66.4545ZM516.864 66.0909L517.474 66.8829L517.474 66.8829L516.864 66.0909ZM510.727 73.2727L510.391 74.2145L511.25 74.5213L511.634 73.6938L510.727 73.2727ZM500.545 69.6364L499.626 69.2424L499.207 70.2203L500.209 70.5781L500.545 69.6364ZM507.818 59.7273L508.433 60.5158L508.434 60.5149L507.818 59.7273ZM517.818 54.7273L518.07 55.695L518.076 55.6935L517.818 54.7273ZM536.273 54.0909L536.088 55.0738L536.1 55.0759L536.273 54.0909ZM544.773 57.3182L544.258 58.1757L544.262 58.1782L544.773 57.3182ZM551.636 64.7273L550.76 65.2095L550.76 65.2095L551.636 64.7273ZM554.364 124V125H555.364V124H554.364ZM543.636 124H542.636V125H543.636V124ZM543.636 114.545H544.636V113.545H543.636V114.545ZM543.091 114.545V113.545H542.462L542.189 114.113L543.091 114.545ZM539.455 119.409L540.168 120.11L540.168 120.11L539.455 119.409ZM532.682 123.818L532.287 122.9L532.287 122.9L532.682 123.818ZM534.727 113.5L534.234 112.63L534.23 112.632L534.727 113.5ZM541.364 107.045L540.497 106.547L540.492 106.555L541.364 107.045ZM543.636 88.9091H544.636V86.147L542.868 88.2689L543.636 88.9091ZM540.636 90.4091L540.906 91.3721L540.919 91.3685L540.636 90.4091ZM535.364 91.5455L535.516 92.5339L535.528 92.5318L535.364 91.5455ZM529.591 92.3636L529.705 93.3572L529.719 93.3554L529.591 92.3636ZM525.091 92.9091L525.22 93.9007L525.221 93.9005L525.091 92.9091ZM517.273 94.6818L517.585 95.6317L517.593 95.6293L517.273 94.6818ZM511.455 98.2727L510.72 97.5939L510.72 97.5944L511.455 98.2727ZM513.409 113.182L512.84 114.004L512.85 114.011L513.409 113.182ZM522.364 125.636V124.636C518.068 124.636 514.198 123.828 510.738 122.229L510.318 123.136L509.899 124.044C513.65 125.778 517.811 126.636 522.364 126.636V125.636ZM510.318 123.136L510.744 122.232C507.295 120.609 504.575 118.287 502.559 115.263L501.727 115.818L500.895 116.373C503.122 119.713 506.129 122.27 509.892 124.041L510.318 123.136ZM501.727 115.818L502.562 115.267C500.567 112.246 499.545 108.567 499.545 104.182H498.545H497.545C497.545 108.887 498.645 112.966 500.893 116.369L501.727 115.818ZM498.545 104.182H499.545C499.545 100.305 500.31 97.2669 501.754 94.9901L500.909 94.4545L500.065 93.919C498.357 96.6119 497.545 100.058 497.545 104.182H498.545ZM500.909 94.4545L501.757 94.9855C503.24 92.6183 505.217 90.7682 507.703 89.4253L507.227 88.5455L506.752 87.6656C503.965 89.1712 501.73 91.2605 500.062 93.9236L500.909 94.4545ZM507.227 88.5455L507.703 89.4253C510.25 88.0491 513.07 87.0192 516.169 86.3405L515.955 85.3636L515.741 84.3868C512.475 85.102 509.477 86.1933 506.752 87.6656L507.227 88.5455ZM515.955 85.3636L516.175 86.3389C519.358 85.6184 522.554 85.0481 525.766 84.6279L525.636 83.6364L525.507 82.6448C522.233 83.0731 518.976 83.6543 515.734 84.3883L515.955 85.3636ZM525.636 83.6364L525.764 84.6282C530.002 84.0832 533.433 83.6753 536.057 83.4038L535.955 82.4091L535.852 81.4144C533.204 81.6883 529.755 82.0986 525.509 82.6445L525.636 83.6364ZM535.955 82.4091L536.067 83.4027C538.768 83.0958 540.876 82.5784 542.271 81.776L541.773 80.9091L541.274 80.0422C540.245 80.6338 538.474 81.1163 535.842 81.4155L535.955 82.4091ZM541.773 80.9091L542.262 81.7812C543.892 80.8669 544.636 79.2708 544.636 77.2727H543.636H542.636C542.636 78.7292 542.138 79.5573 541.283 80.0369L541.773 80.9091ZM543.636 77.2727H544.636V76.9091H543.636H542.636V77.2727H543.636ZM543.636 76.9091H544.636C544.636 72.2392 543.354 68.4729 540.666 65.7518L539.955 66.4545L539.243 67.1573C541.464 69.4059 542.636 72.6093 542.636 76.9091H543.636ZM539.955 66.4545L540.67 65.7562C537.99 63.0091 534.003 61.7273 528.909 61.7273V62.7273V63.7273C533.694 63.7273 537.07 64.9303 539.239 67.1529L539.955 66.4545ZM528.909 62.7273V61.7273C523.652 61.7273 519.395 62.8774 516.253 65.2989L516.864 66.0909L517.474 66.8829C520.151 64.8196 523.923 63.7273 528.909 63.7273V62.7273ZM516.864 66.0909L516.253 65.2989C513.255 67.6101 511.087 70.1226 509.82 72.8516L510.727 73.2727L511.634 73.6938C512.731 71.332 514.654 69.0565 517.474 66.8829L516.864 66.0909ZM510.727 73.2727L511.064 72.331L500.882 68.6946L500.545 69.6364L500.209 70.5781L510.391 74.2145L510.727 73.2727ZM500.545 69.6364L501.465 70.0303C503.23 65.9119 505.56 62.7567 508.433 60.5158L507.818 59.7273L507.203 58.9388C504.015 61.4251 501.498 64.876 499.626 69.2424L500.545 69.6364ZM507.818 59.7273L508.434 60.5149C511.392 58.2016 514.602 56.5984 518.07 55.695L517.818 54.7273L517.566 53.7596C513.822 54.7349 510.366 56.4651 507.202 58.9396L507.818 59.7273ZM517.818 54.7273L518.076 55.6935C521.634 54.7446 525.123 54.2727 528.545 54.2727V53.2727V52.2727C524.937 52.2727 521.275 52.7705 517.561 53.761L517.818 54.7273ZM528.545 53.2727V54.2727C530.71 54.2727 533.222 54.5363 536.088 55.0738L536.273 54.0909L536.457 53.108C533.505 52.5546 530.866 52.2727 528.545 52.2727V53.2727ZM536.273 54.0909L536.1 55.0759C538.911 55.5685 541.629 56.5982 544.258 58.1757L544.773 57.3182L545.287 56.4607C542.462 54.7654 539.513 53.6436 536.445 53.1059L536.273 54.0909ZM544.773 57.3182L544.262 58.1782C546.841 59.7086 549.013 62.035 550.76 65.2095L551.636 64.7273L552.512 64.245C550.623 60.8135 548.219 58.2005 545.283 56.4582L544.773 57.3182ZM551.636 64.7273L550.76 65.2095C552.468 68.3114 553.364 72.5494 553.364 78H554.364H555.364C555.364 72.3597 554.441 67.7492 552.512 64.245L551.636 64.7273ZM554.364 78H553.364V124H554.364H555.364V78H554.364ZM554.364 124V123H543.636V124V125H554.364V124ZM543.636 124H544.636V114.545H543.636H542.636V124H543.636ZM543.636 114.545V113.545H543.091V114.545V115.545H543.636V114.545ZM543.091 114.545L542.189 114.113C541.526 115.496 540.392 117.028 538.741 118.708L539.455 119.409L540.168 120.11C541.911 118.336 543.202 116.626 543.992 114.978L543.091 114.545ZM539.455 119.409L538.741 118.708C537.156 120.322 535.016 121.726 532.287 122.9L532.682 123.818L533.077 124.737C535.984 123.487 538.359 121.951 540.168 120.11L539.455 119.409ZM532.682 123.818L532.287 122.9C529.627 124.044 526.33 124.636 522.364 124.636V125.636V126.636C526.518 126.636 530.101 126.017 533.077 124.737L532.682 123.818ZM524 116V117C528.371 117 532.129 116.141 535.224 114.368L534.727 113.5L534.23 112.632C531.508 114.192 528.114 115 524 115V116ZM534.727 113.5L535.221 114.37C538.299 112.624 540.651 110.349 542.235 107.536L541.364 107.045L540.492 106.555C539.107 109.015 537.034 111.042 534.234 112.63L534.727 113.5ZM541.364 107.045L542.231 107.544C543.829 104.763 544.636 101.819 544.636 98.7273H543.636H542.636C542.636 101.453 541.929 104.055 540.497 106.547L541.364 107.045ZM543.636 98.7273H544.636V88.9091H543.636H542.636V98.7273H543.636ZM543.636 88.9091L542.868 88.2689C542.765 88.3923 542.538 88.5789 542.098 88.7988C541.669 89.0135 541.093 89.2325 540.354 89.4497L540.636 90.4091L540.919 91.3685C541.726 91.1311 542.422 90.8729 542.993 90.5876C543.553 90.3075 544.053 89.9713 544.405 89.5493L543.636 88.9091ZM540.636 90.4091L540.367 89.4461C538.894 89.8584 537.173 90.23 535.199 90.5591L535.364 91.5455L535.528 92.5318C537.554 92.1942 539.348 91.8083 540.906 91.3721L540.636 90.4091ZM535.364 91.5455L535.212 90.5571C533.249 90.8589 531.333 91.1305 529.463 91.3719L529.591 92.3636L529.719 93.3554C531.606 93.1119 533.538 92.838 535.516 92.5338L535.364 91.5455ZM529.591 92.3636L529.477 91.3702C527.626 91.5826 526.12 91.7651 524.96 91.9176L525.091 92.9091L525.221 93.9005C526.365 93.75 527.859 93.5689 529.705 93.3571L529.591 92.3636ZM525.091 92.9091L524.962 91.9175C522.115 92.2888 519.445 92.8933 516.953 93.7343L517.273 94.6818L517.593 95.6293C519.949 94.8339 522.491 94.2567 525.22 93.9007L525.091 92.9091ZM517.273 94.6818L516.96 93.7319C514.43 94.5647 512.337 95.8453 510.72 97.5939L511.455 98.2727L512.189 98.9516C513.542 97.4881 515.328 96.3747 517.585 95.6317L517.273 94.6818ZM511.455 98.2727L510.72 97.5944C509.052 99.4011 508.273 101.819 508.273 104.727H509.273H510.273C510.273 102.181 510.948 100.296 512.189 98.951L511.455 98.2727ZM509.273 104.727H508.273C508.273 108.74 509.779 111.885 512.84 114.004L513.409 113.182L513.978 112.36C511.524 110.66 510.273 108.169 510.273 104.727H509.273ZM513.409 113.182L512.85 114.011C515.843 116.028 519.582 117 524 117V116V115C519.873 115 516.551 114.093 513.968 112.353L513.409 113.182ZM573.943 124H572.943V125H573.943V124ZM573.943 54.1818V53.1818H572.943V54.1818H573.943ZM584.67 54.1818H585.67V53.1818H584.67V54.1818ZM584.67 124V125H585.67V124H584.67ZM573.989 40.4091L573.296 41.1308L573.304 41.1377L573.989 40.4091ZM573.989 30.1364L573.304 29.4077L573.296 29.4147L573.989 30.1364ZM584.761 30.1364L584.069 30.8581L584.076 30.865L584.761 30.1364ZM584.761 40.4091L584.076 39.6804L584.069 39.6874L584.761 40.4091ZM573.943 124H574.943V54.1818H573.943H572.943V124H573.943ZM573.943 54.1818V55.1818H584.67V54.1818V53.1818H573.943V54.1818ZM584.67 54.1818H583.67V124H584.67H585.67V54.1818H584.67ZM584.67 124V123H573.943V124V125H584.67V124ZM579.398 42.5455V41.5455C577.56 41.5455 576.002 40.9293 574.674 39.6805L573.989 40.4091L573.304 41.1377C575.005 42.7374 577.054 43.5455 579.398 43.5455V42.5455ZM573.989 40.4091L574.681 39.6874C573.386 38.4457 572.761 36.9916 572.761 35.2727H571.761H570.761C570.761 37.5539 571.621 39.524 573.296 41.1308L573.989 40.4091ZM571.761 35.2727H572.761C572.761 33.5539 573.386 32.0998 574.681 30.858L573.989 30.1364L573.296 29.4147C571.621 31.0214 570.761 32.9916 570.761 35.2727H571.761ZM573.989 30.1364L574.674 30.865C576.002 29.6161 577.56 29 579.398 29V28V27C577.054 27 575.005 27.8081 573.304 29.4077L573.989 30.1364ZM579.398 28V29C581.235 29 582.774 29.6156 584.069 30.858L584.761 30.1364L585.454 29.4147C583.779 27.8086 581.742 27 579.398 27V28ZM584.761 30.1364L584.076 30.865C585.4 32.1087 586.034 33.5608 586.034 35.2727H587.034H588.034C588.034 32.9847 587.153 31.0125 585.446 29.4077L584.761 30.1364ZM587.034 35.2727H586.034C586.034 36.9847 585.4 38.4368 584.076 39.6805L584.761 40.4091L585.446 41.1377C587.153 39.5329 588.034 37.5608 588.034 35.2727H587.034ZM584.761 40.4091L584.069 39.6874C582.774 40.9298 581.235 41.5455 579.398 41.5455V42.5455V43.5455C581.742 43.5455 583.779 42.7368 585.454 41.1308L584.761 40.4091Z" fill="#1565C0" mask="url(#path-1-outside-1_10130_175)"/>
</svg>
